<svg width="153" height="27" viewBox="0 0 153 27" fill="none" xmlns="http://www.w3.org/2000/svg">
<path d="M30.4443 18L33.7515 8.84033H34.9004V10.4463H34.4688L31.9424 18H30.4443ZM32.0376 15.5244L32.4375 14.3818H36.6079L37.0078 15.5244H32.0376ZM37.0967 18L34.5767 10.4463V8.84033H35.2939L38.5947 18H37.0967ZM41.7721 18.1143C41.1966 18.1143 40.693 17.9704 40.2614 17.6826C39.834 17.3906 39.5018 16.978 39.2648 16.4448C39.032 15.9116 38.9157 15.2832 38.9157 14.5596V14.5469C38.9157 13.819 39.032 13.1885 39.2648 12.6553C39.4975 12.1221 39.8276 11.7116 40.255 11.4238C40.6824 11.1318 41.1881 10.9858 41.7721 10.9858C42.0895 10.9858 42.3857 11.0366 42.6608 11.1382C42.9358 11.2355 43.1792 11.3752 43.3908 11.5571C43.6023 11.7349 43.7695 11.9486 43.8922 12.1982H43.9938V8.40234H45.3776V18H43.9938V16.9146H43.8922C43.7568 17.1642 43.5854 17.38 43.3781 17.562C43.1707 17.7397 42.9316 17.8773 42.6608 17.9746C42.3899 18.0677 42.0937 18.1143 41.7721 18.1143ZM42.1657 16.9336C42.5465 16.9336 42.8766 16.8384 43.1559 16.6479C43.4352 16.4575 43.6489 16.1846 43.797 15.8291C43.9451 15.4694 44.0192 15.0462 44.0192 14.5596V14.5469C44.0192 14.056 43.943 13.6328 43.7907 13.2773C43.6426 12.9219 43.4288 12.6489 43.1496 12.4585C42.8745 12.2638 42.5465 12.1665 42.1657 12.1665C41.7848 12.1665 41.4547 12.2638 41.1754 12.4585C40.9004 12.6489 40.6888 12.9219 40.5407 13.2773C40.3968 13.6286 40.3248 14.0518 40.3248 14.5469V14.5596C40.3248 15.0505 40.3968 15.4736 40.5407 15.8291C40.6888 16.1846 40.9004 16.4575 41.1754 16.6479C41.4547 16.8384 41.7848 16.9336 42.1657 16.9336ZM49.5452 18.1143C48.9697 18.1143 48.4661 17.9704 48.0345 17.6826C47.607 17.3906 47.2748 16.978 47.0379 16.4448C46.8051 15.9116 46.6887 15.2832 46.6887 14.5596V14.5469C46.6887 13.819 46.8051 13.1885 47.0379 12.6553C47.2706 12.1221 47.6007 11.7116 48.0281 11.4238C48.4555 11.1318 48.9612 10.9858 49.5452 10.9858C49.8626 10.9858 50.1588 11.0366 50.4339 11.1382C50.7089 11.2355 50.9523 11.3752 51.1638 11.5571C51.3754 11.7349 51.5426 11.9486 51.6653 12.1982H51.7669V8.40234H53.1507V18H51.7669V16.9146H51.6653C51.5299 17.1642 51.3585 17.38 51.1512 17.562C50.9438 17.7397 50.7047 17.8773 50.4339 17.9746C50.163 18.0677 49.8668 18.1143 49.5452 18.1143ZM49.9387 16.9336C50.3196 16.9336 50.6497 16.8384 50.929 16.6479C51.2083 16.4575 51.422 16.1846 51.5701 15.8291C51.7182 15.4694 51.7923 15.0462 51.7923 14.5596V14.5469C51.7923 14.056 51.7161 13.6328 51.5637 13.2773C51.4156 12.9219 51.2019 12.6489 50.9226 12.4585C50.6476 12.2638 50.3196 12.1665 49.9387 12.1665C49.5579 12.1665 49.2278 12.2638 48.9485 12.4585C48.6734 12.6489 48.4619 12.9219 48.3137 13.2773C48.1699 13.6286 48.0979 14.0518 48.0979 14.5469V14.5596C48.0979 15.0505 48.1699 15.4736 48.3137 15.8291C48.4619 16.1846 48.6734 16.4575 48.9485 16.6479C49.2278 16.8384 49.5579 16.9336 49.9387 16.9336ZM60.5591 18.0444C59.8059 18.0444 59.26 17.9006 58.9214 17.6128C58.5871 17.3208 58.42 16.8447 58.42 16.1846V12.1919H57.3409V11.1064H58.42V9.36719H59.8292V11.1064H61.3082V12.1919H59.8292V15.8481C59.8292 16.2205 59.9032 16.4893 60.0513 16.6543C60.1994 16.8151 60.4449 16.8955 60.7877 16.8955C60.8892 16.8955 60.976 16.8934 61.0479 16.8892C61.1241 16.8849 61.2108 16.8786 61.3082 16.8701V17.9746C61.1981 17.9915 61.0796 18.0063 60.9527 18.019C60.8257 18.036 60.6946 18.0444 60.5591 18.0444ZM65.3742 18.1333C64.7014 18.1333 64.1195 17.9894 63.6286 17.7017C63.142 17.4139 62.7674 17.0034 62.5051 16.4702C62.2427 15.9328 62.1115 15.2959 62.1115 14.5596V14.5469C62.1115 13.8063 62.2427 13.1694 62.5051 12.6362C62.7717 12.103 63.1483 11.6925 63.635 11.4048C64.1258 11.117 64.7056 10.9731 65.3742 10.9731C66.0471 10.9731 66.6268 11.117 67.1135 11.4048C67.6001 11.6883 67.9746 12.0988 68.237 12.6362C68.5036 13.1694 68.6369 13.8063 68.6369 14.5469V14.5596C68.6369 15.2959 68.5036 15.9328 68.237 16.4702C67.9746 17.0034 67.6001 17.4139 67.1135 17.7017C66.6311 17.9894 66.0513 18.1333 65.3742 18.1333ZM65.3742 16.978C65.7678 16.978 66.1021 16.8828 66.3771 16.6924C66.6522 16.4977 66.8617 16.2205 67.0056 15.8608C67.1494 15.5011 67.2214 15.0674 67.2214 14.5596V14.5469C67.2214 14.0348 67.1494 13.599 67.0056 13.2393C66.8617 12.8796 66.6522 12.6045 66.3771 12.4141C66.1021 12.2194 65.7678 12.1221 65.3742 12.1221C64.9807 12.1221 64.6464 12.2194 64.3713 12.4141C64.0962 12.6045 63.8846 12.8796 63.7365 13.2393C63.5926 13.599 63.5207 14.0348 63.5207 14.5469V14.5596C63.5207 15.0674 63.5926 15.5011 63.7365 15.8608C63.8846 16.2205 64.0962 16.4977 64.3713 16.6924C64.6464 16.8828 64.9807 16.978 65.3742 16.978ZM73.1953 18V8.84033H74.6172V12.7124H79.3144V8.84033H80.7427V18H79.3144V13.9438H74.6172V18H73.1953ZM85.4181 18.1333C84.7452 18.1333 84.1634 17.9894 83.6725 17.7017C83.1858 17.4139 82.8113 17.0034 82.5489 16.4702C82.2866 15.9328 82.1554 15.2959 82.1554 14.5596V14.5469C82.1554 13.8063 82.2866 13.1694 82.5489 12.6362C82.8155 12.103 83.1922 11.6925 83.6788 11.4048C84.1697 11.117 84.7495 10.9731 85.4181 10.9731C86.0909 10.9731 86.6707 11.117 87.1573 11.4048C87.644 11.6883 88.0185 12.0988 88.2809 12.6362C88.5475 13.1694 88.6808 13.8063 88.6808 14.5469V14.5596C88.6808 15.2959 88.5475 15.9328 88.2809 16.4702C88.0185 17.0034 87.644 17.4139 87.1573 17.7017C86.6749 17.9894 86.0952 18.1333 85.4181 18.1333ZM85.4181 16.978C85.8116 16.978 86.146 16.8828 86.421 16.6924C86.6961 16.4977 86.9056 16.2205 87.0494 15.8608C87.1933 15.5011 87.2653 15.0674 87.2653 14.5596V14.5469C87.2653 14.0348 87.1933 13.599 87.0494 13.2393C86.9056 12.8796 86.6961 12.6045 86.421 12.4141C86.146 12.2194 85.8116 12.1221 85.4181 12.1221C85.0245 12.1221 84.6902 12.2194 84.4152 12.4141C84.1401 12.6045 83.9285 12.8796 83.7804 13.2393C83.6365 13.599 83.5646 14.0348 83.5646 14.5469V14.5596C83.5646 15.0674 83.6365 15.5011 83.7804 15.8608C83.9285 16.2205 84.1401 16.4977 84.4152 16.6924C84.6902 16.8828 85.0245 16.978 85.4181 16.978ZM89.9285 18V11.1064H91.3059V12.1665H91.4138C91.5662 11.7856 91.8032 11.4915 92.1248 11.2842C92.4506 11.0768 92.8399 10.9731 93.2927 10.9731C93.6059 10.9731 93.8873 11.0239 94.137 11.1255C94.3866 11.2271 94.6004 11.3709 94.7781 11.5571C94.9601 11.7391 95.1018 11.9549 95.2034 12.2046H95.3113C95.4255 11.9549 95.5864 11.7391 95.7937 11.5571C96.0011 11.3709 96.2423 11.2271 96.5173 11.1255C96.7966 11.0239 97.0929 10.9731 97.406 10.9731C97.8715 10.9731 98.2693 11.0641 98.5994 11.2461C98.9295 11.4238 99.1812 11.682 99.3547 12.0205C99.5283 12.359 99.615 12.7674 99.615 13.2456V18H98.2376V13.5757C98.2376 13.2583 98.1889 12.9959 98.0916 12.7886C97.9942 12.577 97.8461 12.4183 97.6472 12.3125C97.4526 12.2067 97.2071 12.1538 96.9109 12.1538C96.6189 12.1538 96.3629 12.2215 96.1428 12.3569C95.927 12.4881 95.7577 12.6659 95.635 12.8901C95.5165 13.1102 95.4573 13.3599 95.4573 13.6392V18H94.0798V13.436C94.0798 13.1737 94.0248 12.9473 93.9148 12.7568C93.809 12.5622 93.6567 12.4141 93.4578 12.3125C93.2589 12.2067 93.024 12.1538 92.7532 12.1538C92.4781 12.1538 92.2306 12.2257 92.0105 12.3696C91.7947 12.5135 91.6233 12.7082 91.4963 12.9536C91.3694 13.1948 91.3059 13.4657 91.3059 13.7661V18H89.9285ZM104.049 18.1333C103.376 18.1333 102.799 17.9894 102.316 17.7017C101.834 17.4097 101.461 16.9971 101.199 16.4639C100.941 15.9307 100.812 15.3001 100.812 14.5723V14.5659C100.812 13.8465 100.941 13.2181 101.199 12.6807C101.461 12.1432 101.83 11.7243 102.304 11.4238C102.782 11.1234 103.34 10.9731 103.979 10.9731C104.623 10.9731 105.175 11.117 105.636 11.4048C106.102 11.6925 106.459 12.0967 106.709 12.6172C106.959 13.1335 107.083 13.7386 107.083 14.4326V14.915H101.51V13.9312H106.398L105.738 14.8452V14.293C105.738 13.8021 105.662 13.3958 105.509 13.0742C105.361 12.7484 105.156 12.505 104.893 12.3442C104.631 12.1834 104.329 12.103 103.986 12.103C103.643 12.103 103.336 12.1877 103.065 12.3569C102.799 12.522 102.587 12.7674 102.431 13.0933C102.278 13.4191 102.202 13.819 102.202 14.293V14.8452C102.202 15.298 102.278 15.6852 102.431 16.0068C102.583 16.3285 102.799 16.5739 103.078 16.7432C103.362 16.9124 103.696 16.9971 104.081 16.9971C104.377 16.9971 104.631 16.9569 104.843 16.8765C105.058 16.7918 105.234 16.6882 105.37 16.5654C105.509 16.4427 105.604 16.3221 105.655 16.2036L105.681 16.1528H107.014L107.001 16.21C106.942 16.4385 106.838 16.667 106.69 16.8955C106.542 17.1198 106.345 17.325 106.1 17.5112C105.858 17.6974 105.566 17.8477 105.224 17.9619C104.885 18.0762 104.494 18.1333 104.049 18.1333ZM114.739 18.2222C114.05 18.2222 113.449 18.1143 112.937 17.8984C112.425 17.6784 112.021 17.3737 111.724 16.9844C111.428 16.5951 111.259 16.1444 111.216 15.6323L111.21 15.5498H112.613L112.619 15.6196C112.649 15.8947 112.757 16.1338 112.943 16.3369C113.133 16.54 113.387 16.6987 113.705 16.813C114.026 16.9272 114.392 16.9844 114.803 16.9844C115.188 16.9844 115.531 16.923 115.831 16.8003C116.132 16.6776 116.367 16.5083 116.536 16.2925C116.709 16.0767 116.796 15.8291 116.796 15.5498V15.5435C116.796 15.1922 116.663 14.9002 116.396 14.6675C116.13 14.4347 115.694 14.2528 115.089 14.1216L114.086 13.9121C113.159 13.7132 112.484 13.3979 112.061 12.9663C111.638 12.5304 111.426 11.974 111.426 11.2969V11.2905C111.43 10.7616 111.572 10.2961 111.851 9.89404C112.135 9.49202 112.526 9.17887 113.026 8.95459C113.525 8.73031 114.098 8.61816 114.746 8.61816C115.393 8.61816 115.958 8.73031 116.441 8.95459C116.927 9.17464 117.31 9.4751 117.59 9.85596C117.873 10.2368 118.032 10.6663 118.066 11.1445L118.072 11.2271H116.682L116.669 11.1445C116.631 10.8949 116.527 10.6727 116.358 10.478C116.193 10.2834 115.971 10.131 115.692 10.021C115.417 9.90674 115.095 9.85173 114.727 9.85596C114.371 9.85596 114.054 9.91097 113.775 10.021C113.495 10.1268 113.273 10.2812 113.108 10.4844C112.947 10.6875 112.867 10.9329 112.867 11.2207V11.2271C112.867 11.5656 112.996 11.8491 113.254 12.0776C113.516 12.3019 113.942 12.4775 114.53 12.6045L115.533 12.8267C116.172 12.9621 116.69 13.1419 117.088 13.3662C117.486 13.5905 117.776 13.8677 117.958 14.1978C118.144 14.5236 118.237 14.9129 118.237 15.3657V15.3721C118.237 15.9561 118.093 16.4618 117.805 16.8892C117.522 17.3123 117.118 17.6403 116.593 17.873C116.068 18.1058 115.45 18.2222 114.739 18.2222ZM122.462 18.1333C121.793 18.1333 121.215 17.9894 120.729 17.7017C120.246 17.4097 119.874 16.995 119.612 16.4575C119.349 15.9201 119.218 15.279 119.218 14.5342V14.5215C119.218 13.7894 119.347 13.1589 119.605 12.6299C119.868 12.1009 120.24 11.6925 120.722 11.4048C121.209 11.117 121.787 10.9731 122.455 10.9731C123.035 10.9731 123.532 11.0747 123.947 11.2778C124.366 11.4767 124.698 11.7518 124.944 12.103C125.193 12.45 125.35 12.8457 125.413 13.29L125.42 13.3218H124.093L124.087 13.3091C124.011 12.9705 123.835 12.6891 123.56 12.4648C123.285 12.2363 122.919 12.1221 122.462 12.1221C122.081 12.1221 121.753 12.2194 121.478 12.4141C121.203 12.6045 120.991 12.8796 120.843 13.2393C120.699 13.599 120.627 14.0264 120.627 14.5215V14.5342C120.627 15.042 120.701 15.4779 120.849 15.8418C120.998 16.2057 121.209 16.4871 121.484 16.686C121.759 16.8807 122.085 16.978 122.462 16.978C122.893 16.978 123.243 16.8828 123.509 16.6924C123.78 16.502 123.97 16.2205 124.08 15.8481L124.093 15.8164L125.413 15.8101L125.401 15.8672C125.32 16.3158 125.157 16.7093 124.912 17.0479C124.666 17.3864 124.339 17.653 123.928 17.8477C123.522 18.0381 123.033 18.1333 122.462 18.1333ZM126.585 18V11.1064H127.962V12.1475H128.07C128.193 11.7793 128.409 11.4937 128.718 11.2905C129.031 11.0874 129.416 10.9858 129.873 10.9858C129.987 10.9858 130.099 10.9922 130.209 11.0049C130.319 11.0176 130.408 11.0324 130.476 11.0493V12.3188C130.353 12.2935 130.231 12.2744 130.108 12.2617C129.989 12.249 129.865 12.2427 129.733 12.2427C129.382 12.2427 129.073 12.3104 128.807 12.4458C128.544 12.5812 128.337 12.7716 128.185 13.0171C128.036 13.2583 127.962 13.5461 127.962 13.8804V18H126.585ZM134.129 18.1333C133.457 18.1333 132.879 17.9894 132.397 17.7017C131.914 17.4097 131.542 16.9971 131.279 16.4639C131.021 15.9307 130.892 15.3001 130.892 14.5723V14.5659C130.892 13.8465 131.021 13.2181 131.279 12.6807C131.542 12.1432 131.91 11.7243 132.384 11.4238C132.862 11.1234 133.421 10.9731 134.06 10.9731C134.703 10.9731 135.255 11.117 135.716 11.4048C136.182 11.6925 136.539 12.0967 136.789 12.6172C137.039 13.1335 137.164 13.7386 137.164 14.4326V14.915H131.59V13.9312H136.478L135.818 14.8452V14.293C135.818 13.8021 135.742 13.3958 135.589 13.0742C135.441 12.7484 135.236 12.505 134.974 12.3442C134.711 12.1834 134.409 12.103 134.066 12.103C133.723 12.103 133.416 12.1877 133.146 12.3569C132.879 12.522 132.667 12.7674 132.511 13.0933C132.358 13.4191 132.282 13.819 132.282 14.293V14.8452C132.282 15.298 132.358 15.6852 132.511 16.0068C132.663 16.3285 132.879 16.5739 133.158 16.7432C133.442 16.9124 133.776 16.9971 134.161 16.9971C134.457 16.9971 134.711 16.9569 134.923 16.8765C135.139 16.7918 135.314 16.6882 135.45 16.5654C135.589 16.4427 135.685 16.3221 135.735 16.2036L135.761 16.1528H137.094L137.081 16.21C137.022 16.4385 136.918 16.667 136.77 16.8955C136.622 17.1198 136.425 17.325 136.18 17.5112C135.939 17.6974 135.647 17.8477 135.304 17.9619C134.965 18.0762 134.574 18.1333 134.129 18.1333ZM141.306 18.1333C140.633 18.1333 140.055 17.9894 139.573 17.7017C139.091 17.4097 138.718 16.9971 138.456 16.4639C138.198 15.9307 138.069 15.3001 138.069 14.5723V14.5659C138.069 13.8465 138.198 13.2181 138.456 12.6807C138.718 12.1432 139.086 11.7243 139.56 11.4238C140.038 11.1234 140.597 10.9731 141.236 10.9731C141.879 10.9731 142.432 11.117 142.893 11.4048C143.358 11.6925 143.716 12.0967 143.966 12.6172C144.215 13.1335 144.34 13.7386 144.34 14.4326V14.915H138.767V13.9312H143.655L142.994 14.8452V14.293C142.994 13.8021 142.918 13.3958 142.766 13.0742C142.618 12.7484 142.413 12.505 142.15 12.3442C141.888 12.1834 141.585 12.103 141.242 12.103C140.9 12.103 140.593 12.1877 140.322 12.3569C140.055 12.522 139.844 12.7674 139.687 13.0933C139.535 13.4191 139.459 13.819 139.459 14.293V14.8452C139.459 15.298 139.535 15.6852 139.687 16.0068C139.84 16.3285 140.055 16.5739 140.335 16.7432C140.618 16.9124 140.953 16.9971 141.338 16.9971C141.634 16.9971 141.888 16.9569 142.099 16.8765C142.315 16.7918 142.491 16.6882 142.626 16.5654C142.766 16.4427 142.861 16.3221 142.912 16.2036L142.937 16.1528H144.27L144.258 16.21C144.198 16.4385 144.095 16.667 143.947 16.8955C143.798 17.1198 143.602 17.325 143.356 17.5112C143.115 17.6974 142.823 17.8477 142.48 17.9619C142.142 18.0762 141.75 18.1333 141.306 18.1333ZM145.588 18V11.1064H146.965V12.1475H147.073C147.242 11.7793 147.492 11.4915 147.822 11.2842C148.152 11.0768 148.569 10.9731 149.073 10.9731C149.847 10.9731 150.44 11.1953 150.85 11.6396C151.26 12.084 151.466 12.7166 151.466 13.5376V18H150.082V13.8613C150.082 13.2858 149.961 12.8584 149.72 12.5791C149.483 12.2956 149.111 12.1538 148.603 12.1538C148.269 12.1538 147.979 12.2279 147.733 12.376C147.488 12.5199 147.297 12.7272 147.162 12.998C147.031 13.2646 146.965 13.5841 146.965 13.9565V18H145.588Z" fill="black"/>
<g clip-path="url(#clip0_114_13)">
<path d="M20.25 1.13625L9 1.125C7.7625 1.125 6.75 2.1375 6.75 3.375V6.75H9V5.625H20.25V21.375H9V20.25H6.75V23.625C6.75 24.8625 7.7625 25.875 9 25.875H20.25C21.4875 25.875 22.5 24.8625 22.5 23.625V3.375C22.5 2.1375 21.4875 1.13625 20.25 1.13625ZM11.25 16.875H13.5V9H5.625V11.25H9.66375L3.375 17.5388L4.96125 19.125L11.25 12.8362V16.875Z" fill="black"/>
</g>
<defs>
<clipPath id="clip0_114_13">
<rect width="27" height="27" fill="white"/>
</clipPath>
</defs>
</svg>
