<svg width="101" height="27" viewBox="0 0 101 27" fill="none" xmlns="http://www.w3.org/2000/svg">
<path d="M32.1489 18V8.84033H33.5708V18H32.1489ZM35.32 18V11.1064H36.6974V12.1475H36.8053C36.9746 11.7793 37.2243 11.4915 37.5543 11.2842C37.8844 11.0768 38.3012 10.9731 38.8048 10.9731C39.5792 10.9731 40.1717 11.1953 40.5822 11.6396C40.9926 12.084 41.1979 12.7166 41.1979 13.5376V18H39.8141V13.8613C39.8141 13.2858 39.6935 12.8584 39.4523 12.5791C39.2153 12.2956 38.8429 12.1538 38.3351 12.1538C38.0008 12.1538 37.7109 12.2279 37.4655 12.376C37.22 12.5199 37.0296 12.7272 36.8942 12.998C36.763 13.2646 36.6974 13.5841 36.6974 13.9565V18H35.32ZM45.2322 18.1333C44.6778 18.1333 44.1954 18.0529 43.7849 17.8921C43.3745 17.7271 43.0486 17.5007 42.8074 17.2129C42.5662 16.9209 42.4244 16.5824 42.3821 16.1973V16.1846H43.7659V16.1973C43.8548 16.4554 44.024 16.6649 44.2737 16.8257C44.5234 16.9865 44.8535 17.0669 45.2639 17.0669C45.5475 17.0669 45.795 17.0267 46.0066 16.9463C46.2224 16.8659 46.3917 16.7537 46.5144 16.6099C46.6372 16.466 46.6985 16.3009 46.6985 16.1147V16.1021C46.6985 15.8862 46.6118 15.7043 46.4383 15.5562C46.2648 15.408 45.9791 15.2874 45.5813 15.1943L44.4768 14.9404C44.0452 14.8431 43.6876 14.7098 43.4041 14.5405C43.1206 14.3713 42.9111 14.1639 42.7757 13.9185C42.6402 13.6688 42.5725 13.3768 42.5725 13.0425V13.0361C42.5725 12.6341 42.6868 12.2786 42.9153 11.9697C43.1438 11.6566 43.4591 11.4132 43.8611 11.2397C44.2674 11.062 44.7307 10.9731 45.2513 10.9731C45.776 10.9731 46.233 11.0557 46.6223 11.2207C47.0159 11.3815 47.3269 11.6058 47.5554 11.8936C47.784 12.1771 47.9194 12.5072 47.9617 12.8838V12.8901H46.6414V12.8774C46.5779 12.6362 46.4256 12.4352 46.1844 12.2744C45.9474 12.1136 45.6342 12.0332 45.2449 12.0332C44.9952 12.0332 44.7731 12.0734 44.5784 12.1538C44.3837 12.23 44.2293 12.3379 44.115 12.4775C44.005 12.613 43.95 12.7738 43.95 12.96V12.9727C43.95 13.1165 43.986 13.2435 44.0579 13.3535C44.1341 13.4593 44.2526 13.5545 44.4134 13.6392C44.5742 13.7196 44.7815 13.7915 45.0354 13.855L46.1336 14.1025C46.7937 14.2591 47.2846 14.4855 47.6062 14.7817C47.9321 15.078 48.095 15.4757 48.095 15.9751V15.9878C48.095 16.411 47.9702 16.7855 47.7205 17.1113C47.4708 17.4329 47.1302 17.6847 46.6985 17.8667C46.2711 18.0444 45.7823 18.1333 45.2322 18.1333ZM51.8945 18.0444C51.1412 18.0444 50.5953 17.9006 50.2568 17.6128C49.9224 17.3208 49.7553 16.8447 49.7553 16.1846V12.1919H48.6762V11.1064H49.7553V9.36719H51.1645V11.1064H52.6435V12.1919H51.1645V15.8481C51.1645 16.2205 51.2385 16.4893 51.3866 16.6543C51.5348 16.8151 51.7802 16.8955 52.123 16.8955C52.2245 16.8955 52.3113 16.8934 52.3832 16.8892C52.4594 16.8849 52.5461 16.8786 52.6435 16.8701V17.9746C52.5335 17.9915 52.415 18.0063 52.288 18.019C52.1611 18.036 52.0299 18.0444 51.8945 18.0444ZM55.7574 18.1143C55.3215 18.1143 54.9301 18.0317 54.5831 17.8667C54.2403 17.6974 53.9695 17.4583 53.7706 17.1494C53.5717 16.8405 53.4722 16.4787 53.4722 16.064V16.0513C53.4722 15.6366 53.5717 15.2832 53.7706 14.9912C53.9737 14.6992 54.2657 14.4707 54.6465 14.3057C55.0316 14.1364 55.4971 14.0348 56.043 14.001L58.5884 13.8486V14.8198L56.2335 14.9722C55.7595 15.0018 55.4104 15.1034 55.1861 15.2769C54.9618 15.4461 54.8497 15.6852 54.8497 15.9941V16.0068C54.8497 16.32 54.9703 16.5675 55.2115 16.7495C55.4527 16.9272 55.7574 17.0161 56.1255 17.0161C56.4683 17.0161 56.773 16.9484 57.0396 16.813C57.3104 16.6733 57.522 16.4871 57.6744 16.2544C57.8267 16.0174 57.9029 15.7508 57.9029 15.4546V13.2837C57.9029 12.9028 57.7844 12.613 57.5474 12.4141C57.3147 12.2109 56.9677 12.1094 56.5064 12.1094C56.1213 12.1094 55.806 12.1771 55.5606 12.3125C55.3194 12.4479 55.1586 12.6383 55.0782 12.8838L55.0655 12.9028H53.7388L53.7452 12.8584C53.8002 12.4775 53.9504 12.1475 54.1959 11.8682C54.4455 11.5846 54.7714 11.3646 55.1734 11.208C55.5796 11.0514 56.043 10.9731 56.5635 10.9731C57.1433 10.9731 57.6342 11.0662 58.0362 11.2524C58.4424 11.4344 58.7492 11.6989 58.9566 12.0459C59.1682 12.3887 59.274 12.8013 59.274 13.2837V18H57.9029V17.0225H57.8013C57.6659 17.2552 57.4966 17.4541 57.2935 17.6191C57.0904 17.7799 56.8598 17.9027 56.6016 17.9873C56.3435 18.0719 56.0621 18.1143 55.7574 18.1143ZM60.8898 18V8.40234H62.2673V18H60.8898ZM63.9911 18V8.40234H65.3685V18H63.9911ZM69.6349 18L72.942 8.84033H74.0909V10.4463H73.6593L71.1329 18H69.6349ZM71.2281 15.5244L71.628 14.3818H75.7985L76.1984 15.5244H71.2281ZM76.2872 18L73.7672 10.4463V8.84033H74.4845L77.7853 18H76.2872ZM78.8298 20.2979V11.1064H80.2073V12.1919H80.3152C80.4464 11.938 80.6157 11.7222 80.823 11.5444C81.0346 11.3667 81.2758 11.2292 81.5466 11.1318C81.8175 11.0345 82.1137 10.9858 82.4353 10.9858C83.0151 10.9858 83.5186 11.134 83.9461 11.4302C84.3735 11.7222 84.7035 12.1348 84.9363 12.668C85.1733 13.1969 85.2918 13.8232 85.2918 14.5469V14.5596C85.2918 15.2874 85.1754 15.918 84.9426 16.4512C84.7099 16.9801 84.3798 17.3906 83.9524 17.6826C83.525 17.9704 83.0193 18.1143 82.4353 18.1143C82.1179 18.1143 81.8217 18.0656 81.5466 17.9683C81.2716 17.8667 81.0283 17.7271 80.8167 17.5493C80.6051 17.3716 80.4379 17.1579 80.3152 16.9082H80.2073V20.2979H78.8298ZM82.0418 16.9336C82.4269 16.9336 82.7569 16.8384 83.032 16.6479C83.3071 16.4575 83.5165 16.1846 83.6604 15.8291C83.8085 15.4736 83.8826 15.0505 83.8826 14.5596V14.5469C83.8826 14.0518 83.8085 13.6265 83.6604 13.271C83.5165 12.9155 83.3071 12.6426 83.032 12.4521C82.7569 12.2617 82.4269 12.1665 82.0418 12.1665C81.6609 12.1665 81.3308 12.2638 81.0515 12.4585C80.7722 12.6489 80.5585 12.9219 80.4104 13.2773C80.2623 13.6286 80.1882 14.0518 80.1882 14.5469V14.5596C80.1882 15.0462 80.2623 15.4673 80.4104 15.8228C80.5585 16.1782 80.7722 16.4533 81.0515 16.6479C81.3308 16.8384 81.6609 16.9336 82.0418 16.9336ZM86.5521 20.2979V11.1064H87.9296V12.1919H88.0375C88.1687 11.938 88.338 11.7222 88.5453 11.5444C88.7569 11.3667 88.9981 11.2292 89.2689 11.1318C89.5398 11.0345 89.836 10.9858 90.1576 10.9858C90.7374 10.9858 91.2409 11.134 91.6684 11.4302C92.0958 11.7222 92.4258 12.1348 92.6586 12.668C92.8956 13.1969 93.0141 13.8232 93.0141 14.5469V14.5596C93.0141 15.2874 92.8977 15.918 92.6649 16.4512C92.4322 16.9801 92.1021 17.3906 91.6747 17.6826C91.2473 17.9704 90.7416 18.1143 90.1576 18.1143C89.8402 18.1143 89.544 18.0656 89.2689 17.9683C88.9939 17.8667 88.7506 17.7271 88.539 17.5493C88.3274 17.3716 88.1602 17.1579 88.0375 16.9082H87.9296V20.2979H86.5521ZM89.7641 16.9336C90.1492 16.9336 90.4792 16.8384 90.7543 16.6479C91.0294 16.4575 91.2388 16.1846 91.3827 15.8291C91.5308 15.4736 91.6049 15.0505 91.6049 14.5596V14.5469C91.6049 14.0518 91.5308 13.6265 91.3827 13.271C91.2388 12.9155 91.0294 12.6426 90.7543 12.4521C90.4792 12.2617 90.1492 12.1665 89.7641 12.1665C89.3832 12.1665 89.0531 12.2638 88.7738 12.4585C88.4945 12.6489 88.2808 12.9219 88.1327 13.2773C87.9846 13.6286 87.9105 14.0518 87.9105 14.5469V14.5596C87.9105 15.0462 87.9846 15.4673 88.1327 15.8228C88.2808 16.1782 88.4945 16.4533 88.7738 16.6479C89.0531 16.8384 89.3832 16.9336 89.7641 16.9336Z" fill="black"/>
<path d="M9.3125 25.875C8.8625 25.875 8.46875 25.7062 8.13125 25.3687C7.79375 25.0312 7.625 24.6375 7.625 24.1875V2.8125C7.625 2.3625 7.79375 1.96875 8.13125 1.63125C8.46875 1.29375 8.8625 1.125 9.3125 1.125H18.3125V5.34375H9.3125V21.6562H21.6875V18H23.375V24.1875C23.375 24.6375 23.2062 25.0312 22.8687 25.3687C22.5312 25.7062 22.1375 25.875 21.6875 25.875H9.3125ZM22.6437 15.3562L17.4125 10.125L18.5937 8.94375L21.8 12.1219V3.65625H23.4875V12.1219L26.6937 8.94375L27.875 10.125L22.6437 15.3562Z" fill="black"/>
</svg>
