<svg width="75" height="75" viewBox="0 0 75 75" fill="none" xmlns="http://www.w3.org/2000/svg">
<circle cx="37.5" cy="37.5" r="37.5" fill="black"/>
<path d="M33.7505 34.4224H36.3823C37.2254 34.4224 37.9204 34.2799 38.4673 33.9951C39.0142 33.6989 39.4186 33.2887 39.6807 32.7646C39.9541 32.2292 40.0908 31.6082 40.0908 30.9019C40.0908 30.2638 39.9655 29.6999 39.7148 29.21C39.4756 28.7087 39.1053 28.3213 38.604 28.0479C38.1027 27.763 37.4704 27.6206 36.707 27.6206C36.1032 27.6206 35.5449 27.7402 35.0322 27.9795C34.5195 28.2188 34.1094 28.5549 33.8018 28.9878C33.4941 29.4207 33.3403 29.9448 33.3403 30.5601H28.4014C28.4014 29.1929 28.766 28.0023 29.4951 26.9883C30.2357 25.9743 31.2269 25.1825 32.4688 24.6128C33.7106 24.0431 35.0778 23.7583 36.5703 23.7583C38.2565 23.7583 39.7319 24.0317 40.9966 24.5786C42.2612 25.1141 43.2467 25.9059 43.9531 26.9541C44.6595 28.0023 45.0127 29.3011 45.0127 30.8506C45.0127 31.6367 44.8304 32.4001 44.4658 33.1406C44.1012 33.8698 43.5771 34.5306 42.8936 35.123C42.2214 35.7041 41.401 36.1712 40.4326 36.5244C39.4642 36.8662 38.3761 37.0371 37.1685 37.0371H33.7505V34.4224ZM33.7505 38.165V35.6187H37.1685C38.5243 35.6187 39.7148 35.7725 40.7402 36.0801C41.7656 36.3877 42.6258 36.832 43.3208 37.4131C44.0158 37.9827 44.5399 38.6606 44.8931 39.4468C45.2463 40.2215 45.4229 41.0817 45.4229 42.0273C45.4229 43.1895 45.2007 44.2262 44.7563 45.1377C44.312 46.0378 43.6854 46.8011 42.8765 47.4277C42.0789 48.0544 41.1447 48.5329 40.0737 48.8633C39.0028 49.1823 37.835 49.3418 36.5703 49.3418C35.5221 49.3418 34.491 49.1994 33.4771 48.9146C32.4744 48.6183 31.563 48.1797 30.7427 47.5986C29.9338 47.0062 29.2843 46.2656 28.7944 45.377C28.3159 44.4769 28.0767 43.4116 28.0767 42.1812H33.0156C33.0156 42.8192 33.1751 43.3888 33.4941 43.8901C33.8132 44.3914 34.2518 44.7845 34.8101 45.0693C35.3797 45.3542 36.012 45.4966 36.707 45.4966C37.4932 45.4966 38.1654 45.3542 38.7236 45.0693C39.2933 44.7731 39.7262 44.363 40.0225 43.8389C40.3301 43.3034 40.4839 42.6825 40.4839 41.9761C40.4839 41.0646 40.3187 40.3354 39.9883 39.7886C39.6579 39.2303 39.1851 38.8201 38.5698 38.5581C37.9546 38.2961 37.2254 38.165 36.3823 38.165H33.7505Z" fill="white"/>
</svg>
