<svg width="75" height="75" viewBox="0 0 75 75" fill="none" xmlns="http://www.w3.org/2000/svg">
<circle cx="37.5" cy="37.5" r="37.5" fill="black"/>
<path d="M45.7305 45.1548V49H28.709V45.7188L36.7583 37.0884C37.5672 36.1883 38.2052 35.3965 38.6724 34.7129C39.1395 34.0179 39.4756 33.397 39.6807 32.8501C39.8971 32.2918 40.0054 31.762 40.0054 31.2607C40.0054 30.5088 39.88 29.8651 39.6294 29.3296C39.3787 28.7827 39.0085 28.3612 38.5186 28.0649C38.04 27.7687 37.4476 27.6206 36.7412 27.6206C35.9893 27.6206 35.3398 27.8029 34.793 28.1675C34.2575 28.5321 33.8473 29.0391 33.5625 29.6885C33.2891 30.3379 33.1523 31.0728 33.1523 31.8931H28.2134C28.2134 30.4119 28.5666 29.0562 29.2729 27.8257C29.9793 26.5838 30.9762 25.5983 32.2637 24.8691C33.5511 24.1286 35.0778 23.7583 36.8438 23.7583C38.5869 23.7583 40.0566 24.0431 41.2529 24.6128C42.4606 25.1711 43.3721 25.98 43.9873 27.0396C44.6139 28.0877 44.9272 29.341 44.9272 30.7993C44.9272 31.6196 44.7962 32.4229 44.5342 33.209C44.2721 33.9837 43.8962 34.7585 43.4062 35.5332C42.9277 36.2965 42.3467 37.0713 41.6631 37.8574C40.9795 38.6436 40.2218 39.4582 39.3901 40.3013L35.0664 45.1548H45.7305Z" fill="white"/>
</svg>
