<svg width="17" height="22" viewBox="0 0 17 22" fill="none" xmlns="http://www.w3.org/2000/svg">
<g clip-path="url(#clip0_377_20)">
<path d="M2.862 21.708H14.094C15.066 21.708 15.768 21.492 16.254 21.006C16.74 20.52 16.956 19.818 16.956 18.9V8.856C16.956 7.938 16.74 7.236 16.254 6.75C15.768 6.264 15.066 6.048 14.094 6.048H11.34V7.236H14.094C14.634 7.236 15.066 7.398 15.336 7.668C15.606 7.938 15.768 8.37 15.768 8.964V18.792C15.768 19.332 15.606 19.764 15.336 20.088C15.066 20.412 14.634 20.52 14.094 20.52H2.916C2.376 20.52 1.944 20.358 1.674 20.088C1.404 19.818 1.242 19.386 1.242 18.792V8.91C1.242 8.37 1.404 7.938 1.674 7.614C1.944 7.29 2.376 7.182 2.916 7.182H5.67V5.994H2.862C1.89 5.994 1.188 6.21 0.702 6.696C0.216 7.182 0 7.938 0 8.856V18.846C0 19.764 0.216 20.52 0.702 20.952C1.188 21.384 1.944 21.708 2.862 21.708ZM8.478 14.202C8.64 14.202 8.802 14.148 8.91 14.04C9.018 13.932 9.072 13.77 9.072 13.608V3.078L9.018 1.674L9.882 2.592L11.556 4.32C11.664 4.428 11.826 4.482 11.988 4.482C12.15 4.482 12.258 4.428 12.366 4.32C12.474 4.212 12.528 4.104 12.528 3.942C12.528 3.78 12.474 3.672 12.366 3.564L8.91 0.216C8.856 0.162 8.748 0.108 8.694 0.054C8.64 0 8.586 0 8.478 0C8.424 0 8.316 0 8.262 0.054C8.208 0.108 8.1 0.162 8.046 0.216L4.644 3.564C4.482 3.672 4.428 3.78 4.428 3.942C4.428 4.104 4.482 4.212 4.59 4.32C4.698 4.428 4.806 4.482 4.968 4.482C5.13 4.482 5.292 4.428 5.4 4.32L7.074 2.592L7.938 1.674L7.884 3.078V13.608C7.884 13.77 7.938 13.878 8.046 14.04C8.154 14.202 8.316 14.202 8.478 14.202Z" fill="black"/>
</g>
<defs>
<clipPath id="clip0_377_20">
<rect width="17" height="22" fill="white"/>
</clipPath>
</defs>
</svg>
