<svg width="22" xmlns="http://www.w3.org/2000/svg" height="22" id="screenshot-deae4d7e-8911-807f-8006-d1ab0933fe5c" viewBox="0 0 22 22" xmlns:xlink="http://www.w3.org/1999/xlink" fill="none" version="1.1"><g id="shape-deae4d7e-8911-807f-8006-d1ab0933fe5c"><defs><clipPath id="frame-clip-deae4d7e-8911-807f-8006-d1ab0933fe5c-render-1" class="frame-clip frame-clip-def"><rect rx="0" ry="0" x="0" y="0" width="22" height="22" transform="matrix(1.000000, 0.000000, 0.000000, 1.000000, 0.000000, 0.000000)"/></clipPath></defs><g class="frame-container-wrapper"><g class="frame-container-blur"><g class="frame-container-shadows"><g clip-path="url(#frame-clip-deae4d7e-8911-807f-8006-d1ab0933fe5c-render-1)" fill="none"><g class="fills" id="fills-deae4d7e-8911-807f-8006-d1ab0933fe5c"><rect rx="0" ry="0" x="0" y="0" width="22" height="22" transform="matrix(1.000000, 0.000000, 0.000000, 1.000000, 0.000000, 0.000000)" class="frame-background"/></g><g class="frame-children"><g id="shape-deae4d7e-8911-807f-8006-d1ab0933fe5d"><g class="fills" id="fills-deae4d7e-8911-807f-8006-d1ab0933fe5d"><ellipse cx="11" cy="11" rx="11" ry="11" transform="matrix(1.000000, 0.000000, 0.000000, 1.000000, 0.000000, 0.000000)" style="fill: rgb(252, 252, 252); fill-opacity: 1;"/></g></g><g id="shape-deae4d7e-8911-807f-8006-d1ab0933fe5e"><g class="fills" id="fills-deae4d7e-8911-807f-8006-d1ab0933fe5e"><ellipse cx="15" cy="11" rx="1" ry="1" transform="matrix(1.000000, 0.000000, 0.000000, 1.000000, 0.000000, 0.000000)" style="fill: rgb(0, 0, 0); fill-opacity: 1;"/></g></g><g id="shape-529e0883-3585-806e-8006-d33ad86e6a89"><g class="fills" id="fills-529e0883-3585-806e-8006-d33ad86e6a89"><ellipse cx="11" cy="11" rx="1" ry="1" transform="matrix(1.000000, 0.000000, 0.000000, 1.000000, 0.000000, 0.000000)" style="fill: rgb(0, 0, 0); fill-opacity: 1;"/></g></g><g id="shape-529e0883-3585-806e-8006-d33adbcd1201"><g class="fills" id="fills-529e0883-3585-806e-8006-d33adbcd1201"><ellipse cx="7" cy="11" rx="1" ry="1" transform="matrix(1.000000, 0.000000, 0.000000, 1.000000, 0.000000, 0.000000)" style="fill: rgb(0, 0, 0); fill-opacity: 1;"/></g></g></g></g></g></g></g></g></svg>