<svg width="17" height="22" viewBox="0 0 17 22" fill="none" xmlns="http://www.w3.org/2000/svg">
<path d="M2.76815 21.2H13.6318C14.572 21.2 15.251 20.9911 15.721 20.521C16.1911 20.0509 16.4 19.3719 16.4 18.4841V8.7694C16.4 7.8815 16.1911 7.20252 15.721 6.73246C15.251 6.26239 14.572 6.05348 13.6318 6.05348H10.9682V7.20252H13.6318C14.1541 7.20252 14.572 7.35921 14.8331 7.62036C15.0943 7.8815 15.251 8.29934 15.251 8.87386V18.3796C15.251 18.9019 15.0943 19.3197 14.8331 19.6331C14.572 19.9465 14.1541 20.0509 13.6318 20.0509H2.82038C2.29809 20.0509 1.88025 19.8942 1.61911 19.6331C1.35796 19.3719 1.20127 18.9541 1.20127 18.3796V8.82163C1.20127 8.29934 1.35796 7.8815 1.61911 7.56813C1.88025 7.25475 2.29809 7.15029 2.82038 7.15029H5.48408V6.00125H2.76815C1.82803 6.00125 1.14904 6.21017 0.678981 6.68023C0.208917 7.15029 0 7.8815 0 8.7694V18.4318C0 19.3197 0.208917 20.0509 0.678981 20.4688C1.14904 20.8866 1.88025 21.2 2.76815 21.2ZM8.2 13.9401C8.35669 13.9401 8.51338 13.8879 8.61783 13.7834C8.72229 13.679 8.77452 13.5223 8.77452 13.3656V3.18087L8.72229 1.8229L9.55796 2.7108L11.1771 4.38214C11.2815 4.4866 11.4382 4.53883 11.5949 4.53883C11.7516 4.53883 11.8561 4.4866 11.9605 4.38214C12.065 4.27768 12.1172 4.17322 12.1172 4.01654C12.1172 3.85985 12.065 3.75539 11.9605 3.65093L8.61783 0.412714C8.5656 0.360484 8.46115 0.308255 8.40892 0.256026C8.35669 0.203796 8.30446 0.203796 8.2 0.203796C8.14777 0.203796 8.04331 0.203796 7.99108 0.256026C7.93885 0.308255 7.83439 0.360484 7.78217 0.412714L4.49172 3.65093C4.33503 3.75539 4.2828 3.85985 4.2828 4.01654C4.2828 4.17322 4.33503 4.27768 4.43949 4.38214C4.54395 4.4866 4.64841 4.53883 4.8051 4.53883C4.96178 4.53883 5.11847 4.4866 5.22293 4.38214L6.84204 2.7108L7.67771 1.8229L7.62548 3.18087V13.3656C7.62548 13.5223 7.67771 13.6267 7.78217 13.7834C7.88662 13.9401 8.04331 13.9401 8.2 13.9401Z" fill="#007AFF"/>
</svg>
