<svg width="17" xmlns="http://www.w3.org/2000/svg" height="22" id="screenshot-deae4d7e-8911-807f-8006-d1a8485085de" viewBox="0 0 17 22" xmlns:xlink="http://www.w3.org/1999/xlink" fill="none" version="1.1"><g id="shape-deae4d7e-8911-807f-8006-d1a8485085de" width="17" height="22" rx="0" ry="0" style="fill: rgb(0, 0, 0);"><g id="shape-deae4d7e-8911-807f-8006-d1a848516fae" style="display: none;"><g class="fills" id="fills-deae4d7e-8911-807f-8006-d1a848516fae"><rect width="17" height="22" x="0" transform="matrix(1.000000, 0.000000, 0.000000, 1.000000, 0.000000, 0.000000)" style="fill: none;" ry="0" fill="none" rx="0" y="0"/></g></g><g id="shape-deae4d7e-8911-807f-8006-d1a848521481"><g class="fills" id="fills-deae4d7e-8911-807f-8006-d1a848521481"><path d="M2.768157958984375,21.20001220703125L13.631805419921875,21.20001220703125C14.571990966796875,21.20001220703125,15.251007080078125,20.9910888671875,15.72100830078125,20.52099609375C16.19110107421875,20.0509033203125,16.399993896484375,19.37188720703125,16.399993896484375,18.484130859375L16.399993896484375,8.7694091796875C16.399993896484375,7.8814697265625,16.19110107421875,7.2025146484375,15.72100830078125,6.73248291015625C15.251007080078125,6.26239013671875,14.571990966796875,6.053466796875,13.631805419921875,6.053466796875L10.96820068359375,6.053466796875L10.96820068359375,7.2025146484375L13.631805419921875,7.2025146484375C14.154098510742188,7.2025146484375,14.571990966796875,7.35919189453125,14.833099365234375,7.620361328125C15.09429931640625,7.8814697265625,15.251007080078125,8.29931640625,15.251007080078125,8.87384033203125L15.251007080078125,18.37957763671875C15.251007080078125,18.90191650390625,15.09429931640625,19.3197021484375,14.833099365234375,19.63311767578125C14.571990966796875,19.94647216796875,14.154098510742188,20.0509033203125,13.631805419921875,20.0509033203125L2.82037353515625,20.0509033203125C2.298095703125,20.0509033203125,1.8802490234375,19.89422607421875,1.619110107421875,19.63311767578125C1.3579559326171875,19.37188720703125,1.201263427734375,18.9541015625,1.201263427734375,18.37957763671875L1.201263427734375,8.8216552734375C1.201263427734375,8.29931640625,1.3579559326171875,7.8814697265625,1.619110107421875,7.568115234375C1.8802490234375,7.2547607421875,2.298095703125,7.1502685546875,2.82037353515625,7.1502685546875L5.4840850830078125,7.1502685546875L5.4840850830078125,6.001220703125L2.768157958984375,6.001220703125C1.828033447265625,6.001220703125,1.1490478515625,6.21014404296875,0.678985595703125,6.68023681640625C0.20892333984375,7.1502685546875,0,7.8814697265625,0,8.7694091796875L0,18.43182373046875C0,19.3197021484375,0.20892333984375,20.0509033203125,0.678985595703125,20.46881103515625C1.1490478515625,20.8865966796875,1.8802490234375,21.20001220703125,2.768157958984375,21.20001220703125ZM8.199996948242188,13.94012451171875C8.356689453125,13.94012451171875,8.513381958007812,13.88787841796875,8.617828369140625,13.78338623046875C8.7222900390625,13.67901611328125,8.774520874023438,13.52227783203125,8.774520874023438,13.3656005859375L8.774520874023438,3.18084716796875L8.7222900390625,1.8228759765625L9.557952880859375,2.7108154296875L11.177093505859375,4.38214111328125C11.281494140625,4.486572265625,11.438201904296875,4.538818359375,11.594894409179688,4.538818359375C11.751602172851562,4.538818359375,11.856094360351562,4.486572265625,11.960494995117188,4.38214111328125C12.06500244140625,4.2777099609375,12.117202758789062,4.1732177734375,12.117202758789062,4.01654052734375C12.117202758789062,3.85986328125,12.06500244140625,3.75537109375,11.960494995117188,3.65093994140625L8.617828369140625,0.4127197265625C8.565597534179688,0.3604736328125,8.461151123046875,0.3082275390625,8.408920288085938,0.25604248046875C8.356689453125,0.20379638671875,8.304458618164062,0.20379638671875,8.199996948242188,0.20379638671875C8.14776611328125,0.20379638671875,8.043304443359375,0.20379638671875,7.9910888671875,0.25604248046875C7.9388427734375,0.3082275390625,7.834381103515625,0.3604736328125,7.78216552734375,0.4127197265625L4.491729736328125,3.65093994140625C4.33502197265625,3.75537109375,4.282806396484375,3.85986328125,4.282806396484375,4.01654052734375C4.282806396484375,4.1732177734375,4.33502197265625,4.2777099609375,4.439483642578125,4.38214111328125C4.5439453125,4.486572265625,4.648406982421875,4.538818359375,4.8050994873046875,4.538818359375C4.9617767333984375,4.538818359375,5.11846923828125,4.486572265625,5.222930908203125,4.38214111328125L6.842041015625,2.7108154296875L7.677703857421875,1.8228759765625L7.62548828125,3.18084716796875L7.62548828125,13.3656005859375C7.62548828125,13.52227783203125,7.677703857421875,13.626708984375,7.78216552734375,13.78338623046875C7.886627197265625,13.94012451171875,8.043304443359375,13.94012451171875,8.199996948242188,13.94012451171875Z" style="fill: rgb(0, 0, 0); fill-opacity: 1;"/></g></g></g></svg>