<svg width="16" height="22" viewBox="0 0 16 22" fill="none" xmlns="http://www.w3.org/2000/svg">
<g clip-path="url(#clip0_539_19)">
<path d="M1.5 22C1.1 22 0.75 21.85 0.45 21.55C0.15 21.25 0 20.9 0 20.5V7.775C0 7.375 0.15 7.025 0.45 6.725C0.75 6.425 1.1 6.275 1.5 6.275H5.725V7.775H1.5V20.5H14.5V7.775H10.225V6.275H14.5C14.9 6.275 15.25 6.425 15.55 6.725C15.85 7.025 16 7.375 16 7.775V20.5C16 20.9 15.85 21.25 15.55 21.55C15.25 21.85 14.9 22 14.5 22H1.5ZM7.225 14.325V2.9L5.025 5.1L3.95 4.025L7.975 0L12 4.025L10.925 5.1L8.725 2.9V14.325H7.225Z" fill="#3A3838"/>
</g>
<defs>
<clipPath id="clip0_539_19">
<rect width="16" height="22" fill="white"/>
</clipPath>
</defs>
</svg>
