<svg width="22" xmlns="http://www.w3.org/2000/svg" height="22" id="screenshot-deae4d7e-8911-807f-8006-d1a9de3c1165" viewBox="0 0 22 22" xmlns:xlink="http://www.w3.org/1999/xlink" fill="none" version="1.1"><g id="shape-deae4d7e-8911-807f-8006-d1a9de3c1165"><defs><clipPath id="frame-clip-deae4d7e-8911-807f-8006-d1a9de3c1165-render-1" class="frame-clip frame-clip-def"><rect rx="0" ry="0" x="0" y="0" width="22" height="22" transform="matrix(1.000000, 0.000000, 0.000000, 1.000000, 0.000000, 0.000000)"/></clipPath></defs><g class="frame-container-wrapper"><g class="frame-container-blur"><g class="frame-container-shadows"><g clip-path="url(#frame-clip-deae4d7e-8911-807f-8006-d1a9de3c1165-render-1)" fill="none"><g class="fills" id="fills-deae4d7e-8911-807f-8006-d1a9de3c1165"><rect rx="0" ry="0" x="0" y="0" width="22" height="22" transform="matrix(1.000000, 0.000000, 0.000000, 1.000000, 0.000000, 0.000000)" class="frame-background"/></g><g class="frame-children"><g id="shape-deae4d7e-8911-807f-8006-d1a99b14a6fe"><g class="fills" id="fills-deae4d7e-8911-807f-8006-d1a99b14a6fe"><ellipse cx="11" cy="11" rx="11" ry="11" transform="matrix(1.000000, 0.000000, 0.000000, 1.000000, 0.000000, 0.000000)" style="fill: rgb(225, 223, 222); fill-opacity: 1;"/></g></g><g id="shape-deae4d7e-8911-807f-8006-d1aa4e1dc3bb"><g class="fills" id="fills-deae4d7e-8911-807f-8006-d1aa4e1dc3bb"><ellipse cx="14" cy="11" rx="1" ry="1" transform="matrix(1.000000, 0.000000, 0.000000, 1.000000, 0.000000, 0.000000)" style="fill: rgb(0, 0, 0); fill-opacity: 1;"/></g></g><g id="shape-529e0883-3585-806e-8006-d33b61f8d93b"><g class="fills" id="fills-529e0883-3585-806e-8006-d33b61f8d93b"><ellipse cx="11" cy="11" rx="1" ry="1" transform="matrix(1.000000, 0.000000, 0.000000, 1.000000, 0.000000, 0.000000)" style="fill: rgb(0, 0, 0); fill-opacity: 1;"/></g></g><g id="shape-529e0883-3585-806e-8006-d33b658407f5"><g class="fills" id="fills-529e0883-3585-806e-8006-d33b658407f5"><ellipse cx="8" cy="11" rx="1" ry="1" transform="matrix(1.000000, 0.000000, 0.000000, 1.000000, 0.000000, 0.000000)" style="fill: rgb(0, 0, 0); fill-opacity: 1;"/></g></g></g></g></g></g></g></g></svg>