<svg width="17" height="17" viewBox="0 0 17 17" fill="none" xmlns="http://www.w3.org/2000/svg">
<g clip-path="url(#clip0_538_4)">
<path d="M16.984 13.2512C16.983 13.7444 16.885 14.2325 16.696 14.6878C16.506 15.1431 16.229 15.5566 15.88 15.9047C15.532 16.2528 15.118 16.5287 14.662 16.7166C14.207 16.9046 13.719 17.0009 13.226 17L3.74401 16.9834C2.74901 16.9817 1.796 16.5844 1.094 15.8789C0.392002 15.1734 -0.00199242 14.2175 7.57729e-06 13.2216L0.016014 3.74879C0.017014 3.25563 0.115008 2.76747 0.304008 2.31218C0.494008 1.8569 0.771003 1.44339 1.12 1.09529C1.468 0.747176 1.88201 0.471286 2.33801 0.283356C2.79301 0.0954257 3.28101 -0.000854289 3.77401 5.71079e-06L13.256 0.0165758C14.251 0.0183158 15.204 0.415636 15.906 1.12113C16.608 1.82661 17.002 2.78247 17 3.77844L16.984 13.2512ZM15.759 3.95072C15.759 3.59929 15.691 3.25117 15.557 2.92625C15.423 2.60133 15.227 2.30597 14.979 2.05703C14.731 1.80809 14.437 1.61045 14.113 1.47539C13.789 1.34034 13.442 1.27051 13.091 1.26989L3.924 1.25387C3.573 1.25325 3.22501 1.32186 2.90101 1.45578C2.57601 1.5897 2.28101 1.78631 2.03201 2.03438C1.78401 2.28244 1.586 2.57712 1.452 2.90156C1.317 3.22601 1.24701 3.57389 1.24601 3.92532L1.23101 12.9839C1.23001 13.3353 1.29801 13.6834 1.43201 14.0083C1.56601 14.3333 1.762 14.6286 2.01 14.8776C2.258 15.1265 2.55201 15.3241 2.87601 15.4592C3.20001 15.5943 3.54801 15.6641 3.89901 15.6647L13.065 15.6807C13.416 15.6813 13.764 15.6127 14.089 15.4788C14.413 15.3449 14.708 15.1483 14.957 14.9002C15.205 14.6522 15.403 14.3575 15.538 14.033C15.672 13.7086 15.742 13.3607 15.743 13.0093L15.759 3.95072Z" fill="black"/>
<path d="M12.1893 8.01892H5.13272C4.77843 8.01892 4.49121 8.30613 4.49121 8.66043V8.66043C4.49121 9.01473 4.77843 9.30194 5.13272 9.30194H12.1893C12.5436 9.30194 12.8308 9.01473 12.8308 8.66043C12.8308 8.30613 12.5436 8.01892 12.1893 8.01892Z" fill="black"/>
<path d="M9.30176 12.1887V5.13211C9.30176 4.77781 9.01454 4.4906 8.66025 4.4906H8.66025C8.30595 4.4906 8.01874 4.77781 8.01874 5.13211V12.1887C8.01874 12.543 8.30595 12.8302 8.66025 12.8302C9.01454 12.8302 9.30176 12.543 9.30176 12.1887Z" fill="black"/>
</g>
<defs>
<clipPath id="clip0_538_4">
<rect width="17" height="17" fill="white"/>
</clipPath>
</defs>
</svg>
